<svg width="864" height="933" viewBox="0 0 864 933" fill="none" xmlns="http://www.w3.org/2000/svg">
<g clip-path="url(#clip0_392_320)">
<path d="M654.384 258.199C699.424 257.011 746.624 258.535 792.174 257.826C797.464 263.235 799.884 266.917 804.233 273.18L804.234 273.181V273.179C805.145 274.535 808.194 278.858 808.784 280.066H808.782L808.783 280.067C811.371 284.008 814.74 288.852 817.17 292.964L817.644 293.775L818.553 295.304C819.447 296.82 820.3 298.301 821.124 299.764C821.399 300.252 821.67 300.738 821.938 301.222C824.893 306.552 827.521 311.719 830.484 317.577L830.483 317.578L833.313 323.879C833.617 324.5 833.904 325.089 834.178 325.655C834.724 326.786 835.216 327.823 835.679 328.837C836.488 330.611 837.206 332.313 837.965 334.32C838.182 334.894 838.402 335.492 838.629 336.124C838.742 336.44 838.857 336.764 838.974 337.098L839.551 338.449C842.601 345.637 847.939 359.088 849.533 365.733L849.534 365.734C851.044 370.471 852.754 375.202 853.524 380.091L853.523 380.092C865.863 418.191 866.303 479.631 856.554 518.171L855.821 521.357C855.327 523.484 854.817 525.615 854.278 527.741C852.931 533.056 851.402 538.337 849.483 543.431C847.733 550.561 841.743 566.26 838.363 573.131L838.364 573.132C835.874 579.422 834.754 582.381 831.294 588.231V588.228C831.293 588.229 831.294 588.23 831.294 588.231C824.654 603.781 810.403 625.6 799.753 639.36L799.754 639.361C799.531 639.671 799.31 639.986 799.086 640.302C797.656 642.311 796.186 644.404 794.727 646.394C794.408 646.828 794.092 647.258 793.774 647.68L793.773 647.681C792.883 648.471 792.003 649.262 791.123 650.042C749.523 651.672 704.953 650.052 663.483 650.402C653.193 650.492 632.063 649.371 627.073 651.601C626.033 679.121 629.644 733.741 622.624 757.371L622.623 757.369V757.372C621.353 767.792 615.733 783.732 611.003 793.072L609.354 797.112C585.614 842.042 559.864 868.892 517.174 897.332C514.198 899.125 510.714 901.299 507.287 903.353C506.668 903.725 506.051 904.094 505.438 904.454C503.392 905.658 501.404 906.784 499.594 907.721C487.314 914.351 451.264 932.171 439.424 932.502C407.25 933.412 358.369 905.882 334.146 888.572C327.272 883.402 319.807 876.582 313.236 870.872C335.397 877.552 349.454 879.101 372.379 879.381L381.184 879.042C381.34 879.02 381.496 878.997 381.652 878.974C383.55 878.704 385.387 878.431 387.18 878.152C388.635 877.925 390.061 877.693 391.466 877.454C393.958 877.029 396.383 876.579 398.788 876.088C401.676 875.498 404.534 874.851 407.443 874.113C408.048 873.96 408.656 873.803 409.266 873.641C409.796 873.501 410.328 873.357 410.862 873.211C411.808 872.952 412.762 872.682 413.728 872.401C414.359 872.218 414.995 872.03 415.636 871.837C416.721 871.51 417.823 871.169 418.943 870.811C460.653 856.271 491.654 828.842 515.714 792.242C515.714 792.241 515.714 792.24 515.715 792.239L515.713 792.24C520.353 784.39 523.583 778.18 527.583 769.971C530.293 764.411 532.694 756.481 534.714 750.441C538.924 725.401 538.023 697.791 538.003 672.211C537.773 635.251 537.833 598.291 538.183 561.331L681.663 561.47C686.838 561.47 698.083 561.602 709.807 561.594C709.808 561.594 709.809 561.594 709.811 561.594C724.886 561.582 740.752 561.338 745.522 560.281L745.521 560.282H745.523C748.113 553.662 755.393 542.812 758.903 534.662C777.503 491.472 779.313 457.152 771.743 411.546C767.913 396.08 763.934 384.416 757.884 369.836L754.993 364.18L753.163 360.122L745.674 348.007C711.584 347.412 676.723 348.086 642.483 347.776C649.173 315.242 652.774 291.219 654.384 258.199Z" fill="#9E345C"/>
<path d="M382.06 6.16611C417.455 -2.88887 454.255 -1.5077 489.515 7.28525C495.878 8.9043 502.185 10.7295 508.43 12.753C509.057 12.9562 509.683 13.1611 510.309 13.3683C513.96 14.5771 517.59 15.8528 521.196 17.1983C528.656 20.4713 541.026 25.4587 547.785 29.2696C520.896 25.6766 486.625 23.0404 460.785 33.0782C454.715 34.9142 448.655 36.7809 442.616 38.6778C438.096 40.9368 435.705 42.2062 430.855 43.7462C428.428 45.0702 425.986 46.4134 423.538 47.754C419.64 49.8893 415.723 52.0131 411.81 54.0255C411.397 54.2376 410.987 54.4517 410.574 54.6612C390.807 68.0338 379.585 75.9626 362.162 92.6622C360.206 94.6402 352.25 103.015 350.594 104.328C344.242 111.711 325.426 132.047 324.08 140.786C325.785 152.922 324.678 194.65 324.675 209.552L324.654 347.207C316.694 347.322 292.063 348.154 284.972 347.212L284.973 347.211C246.129 348.569 205.483 346.951 166.494 347.568C150.836 347.816 133.588 346.821 118.115 347.833C75.7857 407.072 77.0406 504.161 120.6 562.591C123.45 561.475 148.69 561.096 173.355 561.108C173.357 561.108 173.359 561.108 173.362 561.108C177.705 561.11 182.03 561.123 186.212 561.148C197.432 561.213 207.621 561.352 214.357 561.527C215.98 561.57 217.403 561.614 218.591 561.66C219.843 561.709 220.835 561.76 221.527 561.812C217.445 578.572 215.025 594.382 211.614 611.151C210.762 620.101 208.971 629.681 208.361 638.361L207.464 650.302C204.742 650.392 202.015 650.469 199.285 650.534C196.556 650.6 193.824 650.653 191.088 650.697C188.352 650.741 185.614 650.775 182.873 650.801C177.392 650.852 171.902 650.87 166.407 650.866C160.911 650.863 155.409 650.839 149.907 650.806C141.652 650.757 133.393 650.688 125.144 650.643C118.27 650.605 111.402 650.584 104.547 650.604C94.951 650.631 85.3811 650.737 75.8587 650.99V650.992L73.2561 650.752C73.1229 650.642 72.9909 650.531 72.8606 650.42C72.7307 650.309 72.6019 650.198 72.4749 650.085C72.2204 649.86 71.9716 649.631 71.7278 649.401C71.2402 648.939 70.7729 648.465 70.3215 647.983C67.6135 645.085 65.4837 641.832 63.0335 638.472L54.3186 626.031L54.3176 626.032C51.8157 622.552 49.2166 618.023 46.9417 614.303L46.9426 614.302L46.8391 614.207C46.2956 613.649 45.3231 611.869 44.9387 611.241C42.0875 607.06 38.9899 601.887 36.3577 596.754C35.8313 595.728 35.3236 594.703 34.8401 593.688C33.873 591.657 33.0039 589.666 32.2766 587.781L31.0217 585.361C31.0212 585.36 31.0204 585.36 31.0198 585.359C31.0199 585.36 31.0207 585.361 31.0208 585.362C28.2939 580.453 24.8088 572.403 23.0628 567.163L23.0637 567.161C-1.71093 520.161 -6.73646 432.843 9.00612 382.036L9.05592 381.625C9.13022 381.086 9.25309 380.438 9.41139 379.709C9.55089 379.066 9.71754 378.36 9.90749 377.608C11.2978 372.109 13.8536 364.185 14.8518 360.961C17.8947 351.977 21.7156 342.946 25.2815 334.131C26.3835 331.211 28.5479 326.818 29.8909 323.844L30.3508 322.711C35.3873 310.653 49.1878 287.884 56.2757 278.202L57.6409 275.641C61.2219 270.195 65.6955 263.47 70.3215 258.987L70.929 258.44C77.937 257.131 120.295 257.748 130.751 257.729L199.324 257.677C209.477 257.685 226.024 257.206 235.771 258.302C237.754 252.37 236.973 197.507 236.965 187.522L237.214 75.5782C244.26 70.9575 251.037 66.3899 258.442 62.3321C258.517 62.272 258.596 62.2144 258.674 62.1534C261.874 59.6676 267.903 56.4915 271.511 54.4464L281.601 48.5704C281.813 48.4369 282.03 48.3063 282.247 48.172C282.735 47.8711 283.236 47.5671 283.75 47.2628C285.141 46.4402 286.624 45.6064 288.16 44.7716C288.748 44.4525 289.343 44.1325 289.944 43.8136C292.715 42.3429 295.607 40.8792 298.41 39.4747C300.541 38.4074 302.618 37.3699 304.554 36.3937C305.042 36.1475 305.523 35.9076 305.991 35.669C309.446 33.8023 311.84 32.7458 315.467 31.2101C318.845 29.0041 326.914 25.6273 330.902 23.8243C341.821 18.8036 352.283 14.6189 363.832 11.2931C368.947 9.27107 376.518 7.58011 382.06 6.16611Z" fill="#D3F2FF"/>
<path d="M469.844 49.7667C496.924 41.2418 539.694 39.4949 566.344 49.8927L567.419 50.1603C567.781 50.2518 568.148 50.3452 568.519 50.4415C568.889 50.5379 569.263 50.6374 569.641 50.7384C571.529 51.2434 573.504 51.8055 575.527 52.4161C576.337 52.6604 577.155 52.9118 577.978 53.171C578.8 53.4301 579.628 53.697 580.459 53.9698C581.29 54.2425 582.123 54.5216 582.957 54.8067C583.791 55.092 584.626 55.3831 585.459 55.6798C586.292 55.9765 587.123 56.2792 587.949 56.586C588.776 56.8928 589.598 57.2038 590.413 57.5196C590.821 57.6776 591.227 57.8372 591.631 57.9972C592.439 58.317 593.238 58.6408 594.027 58.9679C596.001 59.7858 597.909 60.6242 599.713 61.4747C600.434 61.8148 601.139 62.1568 601.825 62.5001C602.511 62.8435 603.178 63.1888 603.824 63.5343C608.174 65.1533 611.694 67.0864 615.794 69.1974C619.624 71.0424 622.954 72.5195 626.524 74.8605L626.764 188.704C626.844 204.292 627.914 240.119 625.784 254.307C625.864 262.612 623.425 286.877 621.725 295.448C620.535 306.175 616.154 329.745 612.404 340.171C610.834 346.795 608.964 354.069 606.494 360.407C599.474 390.847 571.275 443.333 551.805 468.003L548.675 472.452C516.985 514.732 477.884 550.892 433.254 579.172L426.794 582.782L426.033 583.323C409.798 594.726 377.572 608.345 359.201 615.443C362.933 597.523 366.148 585.262 371.928 567.992L371.961 567.906L373.75 563.211C381.316 540.471 396.356 516.062 411.654 497.773C417.464 490.123 424.924 482.122 431.504 475.082C471.934 432.727 498.454 401.692 519.554 346.359C519.554 346.358 519.554 346.357 519.555 346.356L519.553 346.358C523.543 334.162 527.273 319.529 530.763 307.012V307.015L530.764 307.013C530.904 303.014 531.794 299.482 532.594 295.572V295.57C540.674 238.502 536.703 194.563 538.243 137.973L532.654 131.29C516.174 113.982 498.174 108.762 477.074 100.444C443.594 93.7964 414.054 93.4846 381.583 105.478L381.584 105.475L381.582 105.477C408.473 76.9548 432.823 61.5347 469.843 49.7657L469.842 49.7667H469.844Z" fill="#9A3059"/>
<path d="M504.233 292.043C502.903 299.148 501.553 307.482 499.863 314.4C497.083 323.973 493.503 337.207 489.344 346.014L489.345 346.016C487.545 350.987 486.024 355.358 483.734 360.162C457.464 410.156 433.123 431.348 395.909 472.511C386.879 482.501 377.092 497.761 369.129 509.031L364.938 516.621C357.651 529.311 351.764 540.871 346.316 554.591C343.587 561.461 341.372 568.862 338.469 575.462C337.688 578.762 336.949 581.682 336.15 584.592C335.433 587.203 334.665 589.806 333.774 592.668C333.7 592.907 333.627 593.149 333.551 593.392C329.542 612.371 327.135 625.761 325.216 645.051L325.217 645.052C323.232 672.672 322.322 700.912 325.904 728.462L325.903 728.461C328.261 738.161 331.511 750.541 336.197 759.241C339.233 764.451 341.872 769.251 345.479 774.111C366.071 797.801 387.875 811.141 419.993 813.341C440.583 814.601 461.153 810.761 479.903 802.181C468.373 815.531 454.573 830.571 438.783 838.941L436.634 840.361C432.334 842.671 420.733 848.931 416.073 849.871C414.886 850.411 413.674 850.972 412.442 851.516C412.134 851.652 411.825 851.787 411.515 851.92C409.186 852.92 406.791 853.83 404.36 854.403C404.198 854.442 404.036 854.478 403.873 854.513C402.899 854.724 401.919 854.878 400.936 854.961C400.196 855.241 399.449 855.501 398.697 855.751C397.941 856.001 397.17 856.242 396.386 856.475C393.25 857.403 389.902 858.187 386.4 858.826C385.963 858.906 385.523 858.984 385.081 859.06C384.196 859.21 383.302 859.351 382.4 859.483C381.949 859.55 381.496 859.613 381.041 859.675C380.131 859.798 379.213 859.912 378.288 860.017C375.052 860.383 371.732 860.636 368.367 860.773C367.406 860.813 366.441 860.843 365.473 860.863C357.245 861.038 348.82 860.53 340.755 859.316C336.96 858.745 333.245 858.018 329.668 857.131C323.856 855.69 318.409 853.83 313.578 851.538C313.207 851.362 312.839 851.182 312.475 851.001C307.191 849.691 297.102 843.031 292.658 839.721L286.42 834.951C272.735 821.972 265.372 814.121 257.033 797.312L256.473 796.259C255.836 795.031 255.229 793.755 254.644 792.452C253.987 790.991 253.359 789.495 252.755 787.989C252.534 787.44 252.317 786.89 252.102 786.34C251.153 783.906 250.254 781.474 249.379 779.152L248.914 777.817C229.465 721.128 235.859 637.184 248.067 579.021C250.799 569.441 253.087 557.861 257.004 548.921C258.792 542.501 261.679 535.322 264.045 529.002C265.036 526.465 266.11 523.592 267.256 520.688C267.751 519.433 268.26 518.171 268.781 516.929C269.358 515.556 269.95 514.205 270.557 512.91C271.062 511.831 271.577 510.789 272.102 509.806C272.418 509.215 272.737 508.645 273.059 508.101C283.755 481.081 308.287 442.601 327.311 420.315C329.141 417.297 332.979 413.137 335.395 410.335C337.777 406.884 345.48 398.787 348.651 395.286L363.435 379.956C381.916 362.831 395.703 350.903 416.623 336.409C424.013 331.208 431.193 326.834 438.873 322.114L439.983 321.425C446.863 316.925 456.314 312.1 463.684 308.076L467.543 306.545C468.971 305.736 470.6 304.877 472.37 303.997C473.078 303.645 473.809 303.29 474.559 302.933C476.058 302.218 477.634 301.495 479.255 300.779C480.471 300.243 481.713 299.71 482.968 299.187C484.222 298.663 485.49 298.149 486.758 297.65C489.294 296.653 491.833 295.716 494.271 294.888C494.678 294.75 495.082 294.614 495.482 294.482C496.283 294.219 497.071 293.968 497.843 293.731C500.157 293.022 502.321 292.444 504.233 292.043Z" fill="#D3F2FF"/>
</g>
<defs>
<clipPath id="clip0_392_320">
<rect width="863.373" height="932.524" fill="white"/>
</clipPath>
</defs>
</svg>
